#!OML:ASF Y:\EmotionMaleHayes\Project 1\Capture day 1\Session 1\Male1.ASF
:FULLY-SPECIFIED
:DEGREES
832
root 47.6146 16.8465 -7.30506 353.799 193.027 376.418
lowerback 10.397 5.70814 6.33085
upperback 5.02159 7.65299 1.02393
thorax 0.171503 3.70969 -3.16787
lowerneck -15.2859 10.6788 15.7156
upperneck 26.6199 13.6256 -12.3214
head 13.5824 5.8446 -5.17551
rclavicle -5.76476e-014 1.90833e-014
rhumerus -7.39746 21.1918 -78.3889
rradius 60.9619
rwrist -16.9921
rhand -26.7026 -33.8614
rfingers 7.12502
rthumb -0.132884 -63.8412
lclavicle -5.76476e-014 1.90833e-014
lhumerus -58.4215 -19.3463 91.4416
lradius 30.9042
lwrist -3.29505
lhand -15.3039 -20.2622
lfingers 7.12502
lthumb 10.8716 9.43637
rfemur 7.05852 -7.99946 33.3563
rtibia 10.6463
rfoot -18.6385 -0.967326
rtoes -19.9976
lfemur -26.8564 1.35246 -10.4691
ltibia 32.7902
lfoot -7.53632 5.50534
ltoes 3.01976
833
root 47.5772 16.8092 -7.51942 353.901 192.144 376.62
lowerback 10.0425 6.07368 6.18998
upperback 5.01596 8.10602 1.00092
thorax 0.385764 3.94258 -3.10647
lowerneck -15.0905 11.0332 16.2522
upperneck 26.225 14.1725 -12.8543
head 13.5771 6.09407 -5.35781
rclavicle -1.47101e-014 7.95139e-015
rhumerus -5.15778 22.1983 -77.1719
rradius 61.8795
rwrist -16.9254
rhand -26.7151 -33.4299
rfingers 7.12502
rthumb -0.144879 -63.4096
lclavicle -1.47101e-014 7.95139e-015
lhumerus -60.3056 -19.1589 91.7783
lradius 31.3879
lwrist -1.12237
lhand -16.3317 -19.1646
lfingers 7.12502
lthumb 9.88018 10.5835
rfemur 7.20839 -6.56417 34.1206
rtibia 11.7814
rfoot -19.8283 -1.49091
rtoes -19.0935
lfemur -26.5444 2.95679 -10.538
ltibia 29.7193
lfoot -6.73246 5.91282
ltoes 6.43288
834
root 47.5287 16.7618 -7.7228 354.062 192.001 376.728
lowerback 9.76187 6.11146 6.20602
upperback 4.90059 8.16393 0.835665
thorax 0.449629 3.98435 -3.26273
lowerneck -14.7642 11.3822 16.8726
upperneck 25.8928 14.7033 -13.3967
head 13.5854 6.34459 -5.56755
rclavicle 9.54166e-015 5.24792e-014
rhumerus -3.07641 23.0686 -76.2447
rradius 62.6705
rwrist -16.7296
rhand -26.0981 -32.7161
rfingers 7.12502
rthumb 0.45096 -62.6953
lclavicle 9.54166e-015 5.24792e-014
lhumerus -62.3205 -18.7291 91.9445
lradius 31.879
lwrist 0.522686
lhand -17.6218 -18.3941
lfingers 7.12502
lthumb 8.63534 11.4092
rfemur 7.08469 -6.08744 34.4695
rtibia 13.158
rfoot -21.0174 -2.03411
rtoes -19.3497
lfemur -26.7471 4.80943 -11.2728
ltibia 27.6927
lfoot -6.28439 6.50641
ltoes 9.55451
835
root 47.4752 16.7077 -7.92718 354.115 191.952 376.984
lowerback 9.40292 6.13499 6.07235
upperback 4.88927 8.16918 1.00956
thorax 0.586935 3.98828 -2.97348
lowerneck -14.4164 11.7104 17.0849
upperneck 25.5149 15.2976 -13.8793
head 13.5426 6.59082 -5.67086
rclavicle -6.44062e-014 3.81667e-014
rhumerus -1.01958 24.0967 -74.8113
rradius 63.5617
rwrist -16.7742
rhand -25.9516 -33.1178
rfingers 7.12502
rthumb 0.592443 -63.0967
lclavicle -6.44062e-014 3.81667e-014
lhumerus -64.0906 -17.926 92.4317
lradius 32.129
lwrist 2.07174
lhand -18.502 -18.4151
lfingers 7.12502
lthumb 7.78584 11.4216
rfemur 6.93124 -6.04173 34.7301
rtibia 14.7836
rfoot -22.2482 -1.97666
rtoes -18.559
lfemur -27.4834 8.27808 -12.2349
ltibia 27.4271
lfoot -6.49673 6.76546
ltoes 11.542
836
root 47.4156 16.6484 -8.13162 354.047 191.876 377.366
lowerback 9.164 6.13846 6.32169
upperback 4.8764 8.18053 1.07138
thorax 0.733097 4.00334 -3.0166
lowerneck -14.0268 11.974 17.42
upperneck 25.0825 15.7469 -14.2941
head 13.45 6.80035 -5.79461
rclavicle -1.15295e-013 8.5875e-014
rhumerus 0.789111 24.8908 -73.6032
rradius 64.5138
rwrist -16.9477
rhand -25.7909 -32.9622
rfingers 7.12502
rthumb 0.747698 -62.9406
lclavicle -1.15295e-013 8.5875e-014
lhumerus -65.681 -17.3455 92.7796
lradius 32.1874
lwrist 3.88408
lhand -19.0656 -18.671
lfingers 7.12502
lthumb 7.24181 11.1851
rfemur 6.77655 -6.41777 34.9288
rtibia 16.6074
rfoot -23.5079 -1.65525
rtoes -17.3118
lfemur -27.1917 9.85353 -12.9463
ltibia 25.953
lfoot -6.69477 9.57636
ltoes 12.4243
837
root 47.3548 16.5839 -8.33653 353.88 191.83 377.419
lowerback 9.12524 6.19691 6.37719
upperback 4.87772 8.26127 0.951708
thorax 0.79031 4.05006 -3.16719
lowerneck -13.7184 12.1608 18.1202
upperneck 24.7938 16.0402 -14.8916
head 13.4678 6.94991 -6.09016
rclavicle 4.01545e-014 -4.77083e-015
rhumerus 2.23465 25.4508 -72.6004
rradius 65.5655
rwrist -17.2803
rhand -25.8302 -33.0193
rfingers 7.12502
rthumb 0.70974 -62.9979
lclavicle 4.01545e-014 -4.77083e-015
lhumerus -67.1509 -16.9454 92.9007
lradius 32.1646
lwrist 5.47472
lhand -19.1477 -18.7053
lfingers 7.12502
lthumb 7.16254 11.1535
rfemur 6.76506 -6.86868 34.7026
rtibia 18.5589
rfoot -24.5154 -1.4293
rtoes -16.1788
lfemur -27.1695 12.4398 -14.2427
ltibia 25.9825
lfoot -7.03053 11.7542
ltoes 16.066
838
root 47.2872 16.5089 -8.5419 353.684 191.874 377.358
lowerback 9.04951 6.15525 6.07824
upperback 4.92522 8.17499 1.01078
thorax 0.818437 4.00074 -2.93141
lowerneck -13.4521 12.4853 18.8582
upperneck 24.7396 16.6014 -15.7354
head 13.6938 7.1792 -6.44906
rclavicle 4.81059e-014 -2.06736e-014
rhumerus 3.62656 26.5023 -71.2681
rradius 66.809
rwrist -17.9277
rhand -25.9933 -33.2272
rfingers 7.12502
rthumb 0.552214 -63.2062
lclavicle 4.81059e-014 -2.06736e-014
lhumerus -68.4602 -15.9299 93.0177
lradius 32.018
lwrist 6.49379
lhand -19.0079 -18.5327
lfingers 7.12502
lthumb 7.29753 11.3215
rfemur 6.7624 -7.20717 34.2966
rtibia 20.6718
rfoot -25.1853 -1.0598
rtoes -16.0383
lfemur -27.153 15.3896 -15.6271
ltibia 26.587
lfoot -6.92095 13.2454
ltoes 24.9165
839
root 47.2113 16.4387 -8.75298 353.173 191.813 377.536
lowerback 9.16556 6.10204 6.12184
upperback 5.0736 8.08718 1.12586
thorax 0.892419 3.95086 -2.83562
lowerneck -13.1045 12.6838 18.9674
upperneck 24.5429 16.9512 -15.9205
head 13.6512 7.34031 -6.46987
rclavicle -6.75868e-015 -6.36111e-015
rhumerus 4.88862 27.5038 -69.9214
rradius 68.1595
rwrist -18.712
rhand -26.2986 -33.3301
rfingers 7.12502
rthumb 0.257344 -63.3097
lclavicle -6.75868e-015 -6.36111e-015
lhumerus -69.5483 -15.0311 93.2519
lradius 31.6829
lwrist 7.21897
lhand -18.7611 -18.4398
lfingers 7.12502
lthumb 7.53574 11.406
rfemur 6.9696 -7.59643 33.9647
rtibia 22.998
rfoot -25.4526 -0.547411
rtoes -18.4558
lfemur -26.0589 16.773 -16.336
ltibia 25.9787
lfoot -4.74897 15.8123
ltoes 30.6402
840
root 47.1567 16.3696 -8.95725 352.647 191.99 377.894
lowerback 9.37232 6.07516 6.15581
upperback 5.16089 8.04745 1.21779
thorax 0.859545 3.92287 -2.77558
lowerneck -12.9057 12.8289 19.4106
upperneck 24.4948 17.1254 -16.0644
head 13.6976 7.45454 -6.5671
rclavicle 1.39149e-014 -7.63333e-014
rhumerus 5.80225 28.0038 -68.8749
rradius 69.5111
rwrist -19.3791
rhand -26.4329 -33.2838
rfingers 7.12502
rthumb 0.127612 -63.2635
lclavicle 1.39149e-014 -7.63333e-014
lhumerus -70.3125 -14.5077 93.2574
lradius 31.1089
lwrist 7.37537
lhand -17.8233 -17.8173
lfingers 7.12502
lthumb 8.44088 11.994
rfemur 6.84113 -8.05499 33.9136
rtibia 25.7031
rfoot -25.3816 -0.218101
rtoes -22.4641
lfemur -24.9835 17.3872 -16.4765
ltibia 26.1162
lfoot -6.6305 15.5339
ltoes 33.9763
841
root 47.0859 16.3073 -9.16582 351.855 192.085 378.111
lowerback 9.85693 6.04341 6.1348
upperback 5.30997 7.99917 1.32116
thorax 0.730449 3.88098 -2.70117
lowerneck -12.5667 12.8041 19.1891
upperneck 24.2545 17.0535 -15.6345
head 13.4286 7.47358 -6.36735
rclavicle -3.69739e-014 -3.65764e-014
rhumerus 6.46612 28.5478 -67.9782
rradius 70.8695
rwrist -19.8387
rhand -26.2116 -32.9966
rfingers 7.12502
rthumb 0.3414 -62.9761
lclavicle -3.69739e-014 -3.65764e-014
lhumerus -70.7572 -13.4934 92.8748
lradius 30.215
lwrist 6.53758
lhand -16.4212 -15.6413
lfingers 7.12502
lthumb 9.79384 14.1109
rfemur 6.77626 -8.37334 33.4565
rtibia 28.8674
rfoot -24.6902 0.544012
rtoes -26.22
lfemur -23.2742 17.3381 -16.4692
ltibia 25.8914
lfoot -7.9301 15.4751
ltoes 33.9496
842
root 47.0331 16.2376 -9.35575 351.214 192.46 378.235
lowerback 10.3328 5.84338 5.77965
upperback 5.46232 7.70097 1.46974
thorax 0.533193 3.70536 -2.38335
lowerneck -12.2589 13.0165 19.317
upperneck 24.0433 17.3893 -15.7252
head 13.3769 7.64179 -6.35232
rclavicle 1.39149e-014 4.77083e-014
rhumerus 7.26333 29.379 -67.0811
rradius 72.1653
rwrist -20.2471
rhand -26.2347 -32.6833
rfingers 7.12502
rthumb 0.319019 -62.6628
lclavicle 1.39149e-014 4.77083e-014
lhumerus -71.018 -12.3208 92.655
lradius 29.2769
lwrist 5.56883
lhand -16.1486 -15.546
lfingers 7.12502
lthumb 10.0568 14.1937
rfemur 6.18223 -8.31571 33.1215
rtibia 32.5328
rfoot -23.2612 2.0476
rtoes -26.153
lfemur -21.7621 16.3038 -16.2864
ltibia 25.6882
lfoot -9.56099 15.5658
ltoes 37.1553
843
root 46.9563 16.1781 -9.54994 350.332 192.714 378.283
lowerback 10.9462 5.71093 5.74803
upperback 5.73917 7.50038 1.45368
thorax 0.47456 3.58613 -2.41491
lowerneck -12.1165 13.246 19.952
upperneck 23.9258 17.7002 -16.0941
head 13.4902 7.8086 -6.535
rclavicle 3.18055e-014 2.54444e-014
rhumerus 7.81436 29.8572 -66.5751
rradius 73.2692
rwrist -20.4937
rhand -26.3088 -32.2954
rfingers 7.12502
rthumb 0.247502 -62.275
lclavicle 3.18055e-014 2.54444e-014
lhumerus -71.7296 -12.5766 93.409
lradius 29.0012
lwrist 5.90761
lhand -14.6335 -14.82
lfingers 7.12502
lthumb 11.5182 14.8435
rfemur 5.66589 -8.19912 32.3271
rtibia 36.6198
rfoot -20.8769 4.24093
rtoes -25.2158
lfemur -20.2049 15.5118 -16.0878
ltibia 25.96
lfoot -10.8931 15.7977
ltoes 37.3336
844
root 46.8742 16.1195 -9.74153 349.718 193.037 378.267
lowerback 11.2898 5.57243 5.65463
upperback 5.94635 7.28747 1.41999
thorax 0.481832 3.46775 -2.40433
lowerneck -11.7764 13.3941 20.0972
upperneck 23.5474 17.9095 -16.0755
head 13.3237 7.94522 -6.49702
rclavicle -2.10712e-014 -3.18055e-015
rhumerus 8.07847 30.3009 -66.2703
rradius 74.2889
rwrist -20.5236
rhand -26.273 -31.9323
rfingers 7.12502
rthumb 0.282039 -61.9119
lclavicle -2.10712e-014 -3.18055e-015
lhumerus -71.7234 -12.1975 93.5603
lradius 28.1514
lwrist 5.15779
lhand -15.3051 -17.2499
lfingers 7.12502
lthumb 10.8704 12.4487
rfemur 4.59437 -8.13945 31.3497
rtibia 40.8999
rfoot -17.412 6.41155
rtoes -25.9779
lfemur -19.1026 14.9585 -16.0928
ltibia 26.3693
lfoot -12.6077 15.4878
ltoes 38.049
845
root 46.8143 16.0666 -9.90435 349.22 193.972 377.904
lowerback 11.9908 5.28198 4.99488
upperback 6.07246 6.84916 1.33742
thorax 0.125871 3.21724 -2.15619
lowerneck -11.6591 13.7067 20.8109
upperneck 23.4386 18.3935 -16.6832
head 13.5345 8.16691 -6.7493
rclavicle 2.14687e-014 -5.08889e-014
rhumerus 8.13918 30.8385 -66.0687
rradius 75.2489
rwrist -20.472
rhand -26.3539 -31.6699
rfingers 7.12502
rthumb 0.203941 -61.6496
lclavicle 2.14687e-014 -5.08889e-014
lhumerus -71.4408 -11.9149 93.8051
lradius 27.1587
lwrist 4.28198
lhand -14.7383 -18.1288
lfingers 7.12502
lthumb 11.4172 11.5403
rfemur 3.1174 -8.24757 29.9939
rtibia 45.1726
rfoot -13.0314 8.52644
rtoes -22.8157
lfemur -18.0064 13.608 -17.0058
ltibia 26.5335
lfoot -13.435 16.0007
ltoes 36.2748
846
root 46.7334 16.0268 -10.0702 348.836 194.726 376.862
lowerback 12.6769 5.20448 3.90271
upperback 6.27593 6.621 1.05329
thorax -0.145954 3.06689 -1.88479
lowerneck -11.616 13.7316 20.8562
upperneck 23.2948 18.4738 -16.8913
head 13.5187 8.19042 -6.82025
rclavicle -1.19271e-013 3.81667e-014
rhumerus 7.88585 31.2192 -66.0843
rradius 76.0083
rwrist -20.3691
rhand -26.4614 -30.5053
rfingers 7.12502
rthumb 0.100069 -60.485
lclavicle -1.19271e-013 3.81667e-014
lhumerus -70.8766 -11.8591 93.9404
lradius 26.1069
lwrist 2.92997
lhand -14.0026 -18.2309
lfingers 7.12502
lthumb 12.1266 11.3977
rfemur 1.67569 -8.00832 27.7325
rtibia 49.2451
rfoot -8.12447 10.3457
rtoes -15.3175
lfemur -17.8176 13.9674 -18.4897
ltibia 28.3359
lfoot -14.7775 15.2626
ltoes 36.8415
